{
    "asset": {
        "version": "1.0",
        "generator": "Open Asset Import Library (assimp v4.1.0)"
    },
    "accessors": {
        "0_accessor": {
            "bufferView": "0_view",
            "byteOffset": 0,
            "byteStride": 0,
            "componentType": 5126,
            "count": 511,
            "type": "VEC3",
            "max": [
                1.8718831539154053,
                5.090850830078125,
                4.48475456237793
            ],
            "min": [
                -1.7404811382293702,
                -5.220718860626221,
                0.6666052341461182
            ]
        },
        "0_accessor_0": {
            "bufferView": "0_view_0",
            "byteOffset": 0,
            "byteStride": 0,
            "componentType": 5126,
            "count": 511,
            "type": "VEC3",
            "max": [
                0.9996728897094727,
                0.9804039001464844,
                0.99462890625
            ],
            "min": [
                -0.9938153624534607,
                -0.9968195557594299,
                -0.6939945816993713
            ]
        },
        "0_accessor_1": {
            "bufferView": "0_view_1",
            "byteOffset": 0,
            "byteStride": 0,
            "componentType": 5126,
            "count": 511,
            "type": "VEC2",
            "max": [
                1.1735246181488038,
                1.651164174079895
            ],
            "min": [
                -0.17665277421474458,
                -1.0443792343139649
            ]
        },
        "0_accessor_2": {
            "bufferView": "0_view_2",
            "byteOffset": 0,
            "byteStride": 0,
            "componentType": 5123,
            "count": 1413,
            "type": "SCALAR",
            "max": [
                510.0
            ],
            "min": [
                0.0
            ]
        },
        "0_mesh_accessor": {
            "bufferView": "0_mesh_view",
            "byteOffset": 0,
            "byteStride": 0,
            "componentType": 5126,
            "count": 589,
            "type": "VEC3",
            "max": [
                1.865593671798706,
                5.372903347015381,
                3.8936634063720705
            ],
            "min": [
                -1.8718831539154053,
                -5.372903347015381,
                0.18034768104553224
            ]
        },
        "0_mesh_accessor_0": {
            "bufferView": "0_mesh_view_0",
            "byteOffset": 0,
            "byteStride": 0,
            "componentType": 5126,
            "count": 589,
            "type": "VEC3",
            "max": [
                0.9988942742347717,
                0.9893640875816345,
                0.9988926649093628
            ],
            "min": [
                -0.9985098838806152,
                -0.9823674559593201,
                -0.9982309341430664
            ]
        },
        "0_mesh_accessor_1": {
            "bufferView": "0_mesh_view_1",
            "byteOffset": 0,
            "byteStride": 0,
            "componentType": 5126,
            "count": 589,
            "type": "VEC2",
            "max": [
                0.9981077909469605,
                3.923703193664551
            ],
            "min": [
                -5.2543559074401859,
                0.01931232213973999
            ]
        },
        "0_mesh_accessor_2": {
            "bufferView": "0_mesh_view_2",
            "byteOffset": 0,
            "byteStride": 0,
            "componentType": 5123,
            "count": 1425,
            "type": "SCALAR",
            "max": [
                588.0
            ],
            "min": [
                0.0
            ]
        },
        "0_mesh_0_accessor": {
            "bufferView": "0_mesh_0_view",
            "byteOffset": 0,
            "byteStride": 0,
            "componentType": 5126,
            "count": 550,
            "type": "VEC3",
            "max": [
                1.8050847053527833,
                5.35494327545166,
                5.308250904083252
            ],
            "min": [
                -1.6583025455474854,
                -4.675869941711426,
                0.7603863477706909
            ]
        },
        "0_mesh_0_accessor_0": {
            "bufferView": "0_mesh_0_view_0",
            "byteOffset": 0,
            "byteStride": 0,
            "componentType": 5126,
            "count": 550,
            "type": "VEC3",
            "max": [
                0.9997865557670593,
                0.9987406730651856,
                0.9990487098693848
            ],
            "min": [
                -0.9953835010528565,
                -0.9968195557594299,
                -0.9989629983901978
            ]
        },
        "0_mesh_0_accessor_1": {
            "bufferView": "0_mesh_0_view_1",
            "byteOffset": 0,
            "byteStride": 0,
            "componentType": 5126,
            "count": 550,
            "type": "VEC2",
            "max": [
                5.277949810028076,
                5.971175670623779
            ],
            "min": [
                -2.025024652481079,
                -0.9711756706237793
            ]
        },
        "0_mesh_0_accessor_2": {
            "bufferView": "0_mesh_0_view_2",
            "byteOffset": 0,
            "byteStride": 0,
            "componentType": 5123,
            "count": 1386,
            "type": "SCALAR",
            "max": [
                549.0
            ],
            "min": [
                0.0
            ]
        }
    },
    "buffers": {
        "../../download/h3g05f8bq3no/h3g05f8bq3no": {
            "byteLength": 61252,
            "type": "arraybuffer",
            "uri": "../../download/h3g05f8bq3no/h3g05f8bq3no.bin"
        }
    },
    "bufferViews": {
        "0_view": {
            "buffer": "../../download/h3g05f8bq3no/h3g05f8bq3no",
            "byteOffset": 0,
            "byteLength": 6132,
            "target": 34962
        },
        "0_view_0": {
            "buffer": "../../download/h3g05f8bq3no/h3g05f8bq3no",
            "byteOffset": 6132,
            "byteLength": 6132,
            "target": 34962
        },
        "0_view_1": {
            "buffer": "../../download/h3g05f8bq3no/h3g05f8bq3no",
            "byteOffset": 12264,
            "byteLength": 4088,
            "target": 34962
        },
        "0_view_2": {
            "buffer": "../../download/h3g05f8bq3no/h3g05f8bq3no",
            "byteOffset": 16352,
            "byteLength": 2826,
            "target": 34963
        },
        "0_mesh_view": {
            "buffer": "../../download/h3g05f8bq3no/h3g05f8bq3no",
            "byteOffset": 19180,
            "byteLength": 7068,
            "target": 34962
        },
        "0_mesh_view_0": {
            "buffer": "../../download/h3g05f8bq3no/h3g05f8bq3no",
            "byteOffset": 26248,
            "byteLength": 7068,
            "target": 34962
        },
        "0_mesh_view_1": {
            "buffer": "../../download/h3g05f8bq3no/h3g05f8bq3no",
            "byteOffset": 33316,
            "byteLength": 4712,
            "target": 34962
        },
        "0_mesh_view_2": {
            "buffer": "../../download/h3g05f8bq3no/h3g05f8bq3no",
            "byteOffset": 38028,
            "byteLength": 2850,
            "target": 34963
        },
        "0_mesh_0_view": {
            "buffer": "../../download/h3g05f8bq3no/h3g05f8bq3no",
            "byteOffset": 40880,
            "byteLength": 6600,
            "target": 34962
        },
        "0_mesh_0_view_0": {
            "buffer": "../../download/h3g05f8bq3no/h3g05f8bq3no",
            "byteOffset": 47480,
            "byteLength": 6600,
            "target": 34962
        },
        "0_mesh_0_view_1": {
            "buffer": "../../download/h3g05f8bq3no/h3g05f8bq3no",
            "byteOffset": 54080,
            "byteLength": 4400,
            "target": 34962
        },
        "0_mesh_0_view_2": {
            "buffer": "../../download/h3g05f8bq3no/h3g05f8bq3no",
            "byteOffset": 58480,
            "byteLength": 2772,
            "target": 34963
        }
    },
    "materials": {
        "Material__11": {
            "values": {
                "ambient": [
                    0.21568629145622254,
                    0.11764706671237946,
                    0.062745101749897,
                    1.0
                ],
                "diffuse": [
                    0.6549019813537598,
                    0.35686275362968447,
                    0.19215688109397889,
                    1.0
                ],
                "specular": [
                    0.8980392813682556,
                    0.8980392813682556,
                    0.8980392813682556,
                    1.0
                ],
                "emission": [
                    0.0,
                    0.0,
                    0.0,
                    1.0
                ],
                "shininess": 25.0
            }
        },
        "Material__2": {
            "values": {
                "ambient": [
                    0.8549020290374756,
                    0.7411764860153198,
                    0.5215686559677124,
                    1.0
                ],
                "diffuse": [
                    0.9058824181556702,
                    0.8000000715255737,
                    0.6313725709915161,
                    1.0
                ],
                "specular": [
                    0.8980392813682556,
                    0.8980392813682556,
                    0.8980392813682556,
                    1.0
                ],
                "emission": [
                    0.0,
                    0.0,
                    0.0,
                    1.0
                ],
                "shininess": 25.0
            }
        },
        "Material__1": {
            "values": {
                "ambient": [
                    0.1764705926179886,
                    0.062745101749897,
                    0.062745101749897,
                    1.0
                ],
                "diffuse": [
                    0.5372549295425415,
                    0.19607844948768617,
                    0.19607844948768617,
                    1.0
                ],
                "specular": [
                    0.8980392813682556,
                    0.8980392813682556,
                    0.8980392813682556,
                    1.0
                ],
                "emission": [
                    0.0,
                    0.0,
                    0.0,
                    1.0
                ],
                "shininess": 25.0
            }
        }
    },
    "meshes": {
        "0": {
            "name": "",
            "primitives": [
                {
                    "mode": 4,
                    "material": "Material__11",
                    "indices": "0_accessor_2",
                    "attributes": {
                        "POSITION": "0_accessor",
                        "NORMAL": "0_accessor_0",
                        "TEXCOORD_0": "0_accessor_1"
                    }
                }
            ]
        },
        "0_mesh": {
            "name": "",
            "primitives": [
                {
                    "mode": 4,
                    "material": "Material__2",
                    "indices": "0_mesh_accessor_2",
                    "attributes": {
                        "POSITION": "0_mesh_accessor",
                        "NORMAL": "0_mesh_accessor_0",
                        "TEXCOORD_0": "0_mesh_accessor_1"
                    }
                }
            ]
        },
        "0_mesh_0": {
            "name": "",
            "primitives": [
                {
                    "mode": 4,
                    "material": "Material__1",
                    "indices": "0_mesh_0_accessor_2",
                    "attributes": {
                        "POSITION": "0_mesh_0_accessor",
                        "NORMAL": "0_mesh_0_accessor_0",
                        "TEXCOORD_0": "0_mesh_0_accessor_1"
                    }
                }
            ]
        }
    },
    "nodes": {
        "<3DSRoot>": {
            "matrix": [
                1.0,
                0.0,
                0.0,
                0.0,
                0.0,
                0.0,
                -1.0,
                0.0,
                0.0,
                1.0,
                0.0,
                0.0,
                0.0,
                0.0,
                0.0,
                1.0
            ],
            "children": [
                "gold"
            ]
        },
        "gold": {
            "matrix": [
                0.9469300508499146,
                -0.321439653635025,
                0.0,
                0.0,
                0.321439653635025,
                0.9469300508499146,
                0.0,
                0.0,
                0.0,
                0.0,
                1.0,
                0.0,
                -0.18561923503875733,
                0.08982276916503906,
                -2.7442994117736818,
                1.0
            ],
            "meshes": [
                "0",
                "0_mesh",
                "0_mesh_0"
            ]
        }
    },
    "scenes": {
        "defaultScene": {
            "nodes": [
                "<3DSRoot>"
            ]
        }
    },
    "scene": "defaultScene"
}